{
    "asset" : {
        "generator" : "Khronos glTF Blender I/O v1.2.75",
        "version" : "2.0"
    },
    "scene" : 0,
    "scenes" : [
        {
            "name" : "Scene",
            "nodes" : [
                0
            ]
        }
    ],
    "nodes" : [
        {
            "mesh" : 0,
            "name" : "rig_lob_000610_lv3"
        }
    ],
    "materials" : [
        {
            "emissiveFactor" : [
                0,
                0,
                0
            ],
            "name" : "Submesh0",
            "pbrMetallicRoughness" : {
                "metallicFactor" : 1,
                "roughnessFactor" : 1
            }
        },
        {
            "emissiveFactor" : [
                0,
                0,
                0
            ],
            "name" : "Submesh1",
            "pbrMetallicRoughness" : {
                "metallicFactor" : 1,
                "roughnessFactor" : 1
            }
        },
        {
            "emissiveFactor" : [
                0,
                0,
                0
            ],
            "name" : "Submesh2",
            "pbrMetallicRoughness" : {
                "metallicFactor" : 1,
                "roughnessFactor" : 1
            }
        }
    ],
    "meshes" : [
        {
            "name" : "rig_lob_000610_lv3",
            "primitives" : [
                {
                    "attributes" : {
                        "POSITION" : 0,
                        "NORMAL" : 1,
                        "TEXCOORD_0" : 2,
                        "COLOR_0" : 3,
                        "JOINTS_0" : 4,
                        "WEIGHTS_0" : 5
                    },
                    "indices" : 6,
                    "material" : 0
                },
                {
                    "attributes" : {
                        "POSITION" : 7,
                        "NORMAL" : 8,
                        "TEXCOORD_0" : 9,
                        "COLOR_0" : 10,
                        "JOINTS_0" : 11,
                        "WEIGHTS_0" : 12
                    },
                    "indices" : 13,
                    "material" : 1
                },
                {
                    "attributes" : {
                        "POSITION" : 14,
                        "NORMAL" : 15,
                        "TEXCOORD_0" : 16,
                        "COLOR_0" : 17,
                        "JOINTS_0" : 18,
                        "WEIGHTS_0" : 19
                    },
                    "indices" : 20,
                    "material" : 2
                }
            ]
        }
    ],
    "accessors" : [
        {
            "bufferView" : 0,
            "componentType" : 5126,
            "count" : 35124,
            "max" : [
                1.5408999919891357,
                2.1177115440368652,
                1.1269899606704712
            ],
            "min" : [
                -1.540900468826294,
                -0.037431277334690094,
                -2.739929676055908
            ],
            "type" : "VEC3"
        },
        {
            "bufferView" : 1,
            "componentType" : 5126,
            "count" : 35124,
            "type" : "VEC3"
        },
        {
            "bufferView" : 2,
            "componentType" : 5126,
            "count" : 35124,
            "type" : "VEC2"
        },
        {
            "bufferView" : 3,
            "componentType" : 5126,
            "count" : 35124,
            "type" : "VEC4"
        },
        {
            "bufferView" : 4,
            "componentType" : 5123,
            "count" : 35124,
            "type" : "VEC4"
        },
        {
            "bufferView" : 5,
            "componentType" : 5126,
            "count" : 35124,
            "type" : "VEC4"
        },
        {
            "bufferView" : 6,
            "componentType" : 5123,
            "count" : 35124,
            "type" : "SCALAR"
        },
        {
            "bufferView" : 7,
            "componentType" : 5126,
            "count" : 606,
            "max" : [
                0.15818096697330475,
                1.7472869157791138,
                0.9865809082984924
            ],
            "min" : [
                -0.15818098187446594,
                1.641977071762085,
                0.8005697727203369
            ],
            "type" : "VEC3"
        },
        {
            "bufferView" : 8,
            "componentType" : 5126,
            "count" : 606,
            "type" : "VEC3"
        },
        {
            "bufferView" : 9,
            "componentType" : 5126,
            "count" : 606,
            "type" : "VEC2"
        },
        {
            "bufferView" : 10,
            "componentType" : 5126,
            "count" : 606,
            "type" : "VEC4"
        },
        {
            "bufferView" : 11,
            "componentType" : 5123,
            "count" : 606,
            "type" : "VEC4"
        },
        {
            "bufferView" : 12,
            "componentType" : 5126,
            "count" : 606,
            "type" : "VEC4"
        },
        {
            "bufferView" : 13,
            "componentType" : 5123,
            "count" : 606,
            "type" : "SCALAR"
        },
        {
            "bufferView" : 14,
            "componentType" : 5126,
            "count" : 3592,
            "max" : [
                0.5713000297546387,
                1.7555999755859375,
                1.0197947025299072
            ],
            "min" : [
                -0.5713000297546387,
                0.525600016117096,
                -0.3927053213119507
            ],
            "type" : "VEC3"
        },
        {
            "bufferView" : 15,
            "componentType" : 5126,
            "count" : 3592,
            "type" : "VEC3"
        },
        {
            "bufferView" : 16,
            "componentType" : 5126,
            "count" : 3592,
            "type" : "VEC2"
        },
        {
            "bufferView" : 17,
            "componentType" : 5126,
            "count" : 3592,
            "type" : "VEC4"
        },
        {
            "bufferView" : 18,
            "componentType" : 5123,
            "count" : 3592,
            "type" : "VEC4"
        },
        {
            "bufferView" : 19,
            "componentType" : 5126,
            "count" : 3592,
            "type" : "VEC4"
        },
        {
            "bufferView" : 20,
            "componentType" : 5123,
            "count" : 17403,
            "type" : "SCALAR"
        }
    ],
    "bufferViews" : [
        {
            "buffer" : 0,
            "byteLength" : 421488,
            "byteOffset" : 0
        },
        {
            "buffer" : 0,
            "byteLength" : 421488,
            "byteOffset" : 421488
        },
        {
            "buffer" : 0,
            "byteLength" : 280992,
            "byteOffset" : 842976
        },
        {
            "buffer" : 0,
            "byteLength" : 561984,
            "byteOffset" : 1123968
        },
        {
            "buffer" : 0,
            "byteLength" : 280992,
            "byteOffset" : 1685952
        },
        {
            "buffer" : 0,
            "byteLength" : 561984,
            "byteOffset" : 1966944
        },
        {
            "buffer" : 0,
            "byteLength" : 70248,
            "byteOffset" : 2528928
        },
        {
            "buffer" : 0,
            "byteLength" : 7272,
            "byteOffset" : 2599176
        },
        {
            "buffer" : 0,
            "byteLength" : 7272,
            "byteOffset" : 2606448
        },
        {
            "buffer" : 0,
            "byteLength" : 4848,
            "byteOffset" : 2613720
        },
        {
            "buffer" : 0,
            "byteLength" : 9696,
            "byteOffset" : 2618568
        },
        {
            "buffer" : 0,
            "byteLength" : 4848,
            "byteOffset" : 2628264
        },
        {
            "buffer" : 0,
            "byteLength" : 9696,
            "byteOffset" : 2633112
        },
        {
            "buffer" : 0,
            "byteLength" : 1212,
            "byteOffset" : 2642808
        },
        {
            "buffer" : 0,
            "byteLength" : 43104,
            "byteOffset" : 2644020
        },
        {
            "buffer" : 0,
            "byteLength" : 43104,
            "byteOffset" : 2687124
        },
        {
            "buffer" : 0,
            "byteLength" : 28736,
            "byteOffset" : 2730228
        },
        {
            "buffer" : 0,
            "byteLength" : 57472,
            "byteOffset" : 2758964
        },
        {
            "buffer" : 0,
            "byteLength" : 28736,
            "byteOffset" : 2816436
        },
        {
            "buffer" : 0,
            "byteLength" : 57472,
            "byteOffset" : 2845172
        },
        {
            "buffer" : 0,
            "byteLength" : 34806,
            "byteOffset" : 2902644
        }
    ],
    "buffers" : [
        {
            "byteLength" : 2937452,
            "uri" : "data:application/octet-stream;base64,"
        }
    ]
}
